<?xml version="1.0" encoding="utf-8"?>
<!-- Generator: Adobe Illustrator 24.0.1, SVG Export Plug-In . SVG Version: 6.00 Build 0)  -->
<svg version="1.1" id="Layer_1" xmlns="http://www.w3.org/2000/svg" xmlns:xlink="http://www.w3.org/1999/xlink" x="0px" y="0px"
	 viewBox="0 0 1024 1024" style="enable-background:new 0 0 1024 1024;" xml:space="preserve">
<style type="text/css">
	.st0{fill:#EFCC3C;}
	.st1{fill:#562A03;}
	.st2{fill:#D8BC45;}
	.st3{fill:#EFCC3C;stroke:#562A03;stroke-width:2.1813;stroke-linecap:round;stroke-linejoin:bevel;stroke-miterlimit:10;}
	.st4{fill:#DFCEC6;}
	.st5{fill:#0B2F38;}
	.st6{fill:#84D6FC;}
	.st7{fill:#7AC6EA;}
	.st8{fill:#BC1515;}
	.st9{fill:#FFFFFF;}
	.st10{fill:#145566;}
	.st11{fill:#EFEFEF;}
</style>
<g>
	<g>
		<path class="st0" d="M723.67,854.4c-3.6,0.69-7.01,1.74-10.16,3.08c18-1.75,33.74,6.5,36.26,19.66
			c2.24,11.7-6.67,23.65-20.88,29.69c1.54-0.15,3.11-0.37,4.68-0.67c19.88-3.8,33.77-18.47,31.03-32.76
			C761.88,859.1,743.55,850.6,723.67,854.4z"/>
		<path class="st1" d="M723.67,854.4c-3.48,0.68-6.89,1.71-10.14,3.1l-0.01-0.06c6.97-0.63,14.17-0.03,20.76,2.57
			c3.28,1.29,6.4,3.07,9.07,5.42c2.66,2.35,4.85,5.31,6.11,8.69c0.35,0.83,0.51,1.72,0.77,2.59c0.2,0.88,0.29,1.78,0.42,2.67
			c0.09,1.8,0.07,3.63-0.31,5.4c-0.66,3.56-2.18,6.93-4.26,9.86c-4.21,5.88-10.26,10.18-16.81,13l-0.44-1.72l3.17-0.47
			c0.53-0.08,1.06-0.14,1.58-0.25l1.56-0.35c1.04-0.23,2.09-0.46,3.1-0.8c1.01-0.33,2.06-0.57,3.04-0.99
			c4-1.47,7.83-3.44,11.25-5.97c3.41-2.54,6.44-5.63,8.62-9.27c2.16-3.62,3.52-7.82,3.26-12.07c-0.24-4.24-1.97-8.34-4.72-11.63
			c-2.8-3.26-6.48-5.72-10.44-7.43C741.24,853.31,732.2,852.84,723.67,854.4z M723.67,854.4c4.27-0.8,8.64-1.1,12.98-0.78
			c4.33,0.3,8.65,1.19,12.69,2.84c4.03,1.63,7.85,3.99,10.81,7.27c2.92,3.29,4.86,7.52,5.23,11.97c0.39,4.46-0.91,8.95-3.09,12.81
			c-2.19,3.88-5.28,7.21-8.8,9.9c-3.52,2.71-7.47,4.81-11.62,6.34c-1.02,0.44-2.1,0.7-3.15,1.05c-1.05,0.36-2.13,0.6-3.21,0.84
			l-1.62,0.37c-0.54,0.1-1.09,0.16-1.64,0.25l-3.28,0.46l-0.44-1.72c6.31-2.7,12.16-6.75,16.26-12.25c2.04-2.74,3.56-5.87,4.27-9.2
			c0.4-1.66,0.46-3.37,0.43-5.07c-0.1-0.84-0.16-1.7-0.33-2.53c-0.23-0.82-0.35-1.68-0.66-2.47c-1.11-3.24-3.12-6.15-5.65-8.5
			c-2.53-2.36-5.55-4.2-8.75-5.56c-3.21-1.37-6.63-2.27-10.1-2.7c-3.47-0.44-7-0.51-10.49-0.2l-0.01-0.06
			C716.77,856.07,720.19,855.06,723.67,854.4z"/>
	</g>
	<g>
		<path class="st0" d="M661.45,966.77h-34.19c-12.28,0-19.96-5.34-13.82-9.62l17.1-11.9l17.1-11.9c6.14-4.27,21.49-4.27,27.63,0
			l17.1,11.9l17.1,11.9c6.14,4.27-1.54,9.62-13.82,9.62H661.45z"/>
		<g>
			<path class="st1" d="M661.45,966.91L647.38,967l-14.08,0.24c-2.35,0.02-4.68,0.14-7.05,0.18c-2.38,0.01-4.78-0.16-7.16-0.65
				c-2.36-0.51-4.75-1.19-6.9-2.8c-0.53-0.41-1.03-0.92-1.44-1.56c-0.41-0.64-0.69-1.48-0.63-2.35c0.05-0.87,0.41-1.65,0.85-2.25
				c0.44-0.61,0.95-1.11,1.48-1.51c7.6-5.65,15.08-11.24,22.66-16.8l5.7-4.13l2.85-2.06l1.43-1.03l0.72-0.51
				c0.25-0.17,0.45-0.33,0.78-0.52c2.42-1.55,4.93-2.27,7.4-2.79c2.48-0.49,4.97-0.72,7.46-0.74c2.49,0.03,4.97,0.25,7.46,0.74
				c2.48,0.52,4.98,1.24,7.4,2.79c1.08,0.71,1.95,1.37,2.92,2.07l2.85,2.06l5.7,4.13l22.66,16.8c0.53,0.4,1.04,0.9,1.48,1.51
				c0.43,0.6,0.8,1.38,0.84,2.24c0.06,0.86-0.23,1.71-0.63,2.34c-0.41,0.64-0.91,1.15-1.44,1.56c-2.14,1.61-4.53,2.29-6.89,2.8
				c-2.37,0.48-4.77,0.65-7.16,0.65l-7.05-0.17c-4.69-0.08-9.39-0.19-14.08-0.23L661.45,966.91z M661.45,966.64l28.16-0.03
				l7.03-0.02c2.33-0.07,4.67-0.31,6.94-0.84c2.25-0.54,4.52-1.31,6.32-2.75c0.87-0.71,1.6-1.72,1.51-2.82
				c-0.1-1.1-0.94-2.01-1.84-2.67l-23.12-16.06l-11.57-8.01c-1.94-1.23-4.21-1.91-6.48-2.36c-2.28-0.44-4.62-0.63-6.95-0.64
				c-2.33,0.01-4.66,0.2-6.95,0.64c-2.27,0.45-4.54,1.13-6.48,2.36l-11.57,8.01l-23.12,16.06c-0.9,0.67-1.75,1.57-1.84,2.67
				c-0.09,1.1,0.64,2.11,1.51,2.82c1.79,1.44,4.07,2.21,6.32,2.75c2.27,0.53,4.6,0.78,6.94,0.84l7.03,0.02L661.45,966.64z"/>
		</g>
	</g>
	<path class="st2" d="M708.24,958.59l-9.52-6.63l-9.52-6.63c-2.7-1.88-8.57-2.27-12.62-1.19c1.58,0.29,2.98,0.78,3.96,1.46
		l9.52,6.63l9.52,6.63c2.81,1.96,0.43,4.31-4.3,5.09h5.26C707.39,963.95,711.66,960.97,708.24,958.59z"/>
	<g>
		<path class="st0" d="M737.18,886.87c0,30.24-33.69,54.77-75.25,54.77c-29.77,0-55.49-12.58-67.7-30.83
			c-13.26-3.81-27.17-12.7-37.69-31.42c-17.78-31.65-33.05-41.29-41.8-44.12c-0.38-0.12-0.28-0.68,0.12-0.67
			c4.54,0.1,10.19,0.07,14.62-0.45c5.66-0.66,40.02,15.1,70.62,21.5c13.59-14.23,36.21-23.54,61.83-23.54
			C703.49,832.1,737.18,856.62,737.18,886.87z"/>
		<path class="st1" d="M737.18,886.87c0.05,7.52-2.14,14.98-5.92,21.46c-3.77,6.51-9.06,12.06-15.03,16.6
			c-5.98,4.55-12.68,8.13-19.71,10.78c-3.51,1.35-7.11,2.46-10.76,3.36c-3.65,0.9-7.35,1.64-11.08,2.1
			c-7.46,1-15.03,1.11-22.54,0.48c-7.5-0.66-14.97-2.09-22.14-4.49c-7.17-2.39-14.06-5.67-20.35-9.92
			c-6.3-4.22-11.86-9.61-16.25-15.88l0.55,0.41c-8.23-2.32-16.01-6.39-22.53-11.97c-6.54-5.57-11.8-12.49-16.02-19.88
			c-4.12-7.28-8.63-14.35-13.76-20.91c-5.12-6.55-10.85-12.69-17.57-17.41c-0.85-0.57-1.7-1.14-2.57-1.67
			c-0.89-0.5-1.75-1.05-2.67-1.48c-0.9-0.48-1.83-0.87-2.76-1.27l-1.42-0.52l-0.43-0.16c-0.56-0.18-1.09-0.89-1.07-1.51
			c-0.02-0.6,0.29-1.24,0.92-1.56c0.28-0.16,0.7-0.19,0.82-0.18l0.2,0c4.17,0.09,8.36,0.09,12.47-0.23l1.53-0.15
			c0.21-0.03,0.65-0.04,0.98-0.04c0.32,0.02,0.61,0.06,0.92,0.09c1.15,0.18,2.2,0.44,3.24,0.73c2.08,0.57,4.08,1.24,6.09,1.93
			c4,1.37,7.95,2.81,11.91,4.23c7.91,2.87,15.84,5.63,23.82,8.22c7.98,2.57,16.05,4.91,24.22,6.69l-0.87,0.27
			c5.08-5.14,10.95-9.44,17.31-12.78c3.15-1.72,6.46-3.13,9.8-4.43c3.37-1.21,6.77-2.35,10.26-3.17c6.95-1.72,14.07-2.71,21.21-2.89
			c7.14-0.2,14.3,0.27,21.32,1.55c3.51,0.62,6.99,1.43,10.4,2.46c3.42,1,6.79,2.17,10.06,3.59c6.56,2.78,12.76,6.42,18.3,10.92
			c5.52,4.5,10.31,9.94,13.75,16.19C735.26,872.67,737.21,879.74,737.18,886.87z M737.18,886.87c-0.01-7.12-2-14.18-5.47-20.37
			c-3.46-6.21-8.27-11.61-13.79-16.05c-5.54-4.44-11.74-8.04-18.28-10.77c-3.26-1.39-6.62-2.55-10.04-3.51
			c-3.41-0.98-6.88-1.73-10.38-2.29c-6.99-1.16-14.11-1.53-21.18-1.22c-7.07,0.29-14.11,1.37-20.94,3.17
			c-3.43,0.86-6.77,2.03-10.07,3.27c-3.26,1.34-6.49,2.76-9.56,4.5c-6.19,3.36-11.85,7.65-16.7,12.7l-0.87,0.27
			c-16.59-3.39-32.63-8.81-48.48-14.44c-3.97-1.4-7.93-2.82-11.9-4.15c-1.98-0.66-3.97-1.31-5.95-1.85
			c-0.99-0.26-1.98-0.5-2.92-0.64l-0.65-0.06c-0.2,0.02-0.29-0.01-0.6,0.03l-1.61,0.16c-4.27,0.36-8.52,0.39-12.75,0.32l-0.2,0
			c-0.01,0.01,0.28-0.01,0.44-0.1c0.39-0.2,0.57-0.58,0.55-0.91c0.02-0.35-0.32-0.82-0.63-0.9l0.31,0.11
			c0.52,0.19,1.04,0.36,1.55,0.56c1.01,0.42,2.02,0.84,2.98,1.35c0.99,0.46,1.91,1.03,2.86,1.56c0.93,0.56,1.83,1.16,2.73,1.75
			c3.55,2.46,6.78,5.31,9.76,8.37c0.78,0.74,1.46,1.56,2.19,2.33c0.73,0.78,1.45,1.57,2.12,2.39l2.06,2.44l1.96,2.52
			c5.2,6.73,9.72,13.92,13.85,21.3c4.07,7.22,9.11,13.92,15.38,19.32c6.22,5.42,13.61,9.48,21.55,11.83l0.56,0.41
			c4.13,6.08,9.43,11.41,15.53,15.62c6.08,4.24,12.8,7.57,19.83,10.03c7.03,2.47,14.38,3.99,21.8,4.76
			c7.43,0.73,14.94,0.74,22.37-0.15c3.72-0.41,7.4-1.08,11.05-1.92c3.65-0.83,7.24-1.92,10.74-3.24c7.01-2.6,13.71-6.13,19.69-10.63
			c5.97-4.49,11.28-9.99,15.07-16.46C734.96,901.82,737.19,894.39,737.18,886.87z"/>
	</g>
	<path class="st2" d="M680.31,832.86c23.11,9,38.98,27.55,38.98,48.98c0,30.24-31.6,54.77-70.57,54.77
		c-8.54,0-16.73-1.18-24.31-3.34c11.22,4.84,24.32,7.62,38.31,7.62c41.56,0,75.25-24.52,75.25-54.77
		C737.95,860.28,713.37,838.62,680.31,832.86z"/>
	<g>
		<path class="st0" d="M637.68,943.55h48.93c2.74,0,4.98-2.24,4.98-4.98v-1.52c0-2.74-2.24-4.98-4.98-4.98h-48.93
			c-2.74,0-4.98,2.24-4.98,4.98v1.52C632.7,941.3,634.94,943.55,637.68,943.55z"/>
		<g>
			<path class="st1" d="M637.68,943.55c11.01,0,22.03-0.28,33.04-0.67l16.37-0.52c1.04-0.15,1.99-0.77,2.57-1.63
				c0.29-0.43,0.49-0.91,0.58-1.42c0.04-0.26,0.06-0.5,0.05-0.77l-0.01-1.03l-0.01-0.5c-0.01-0.13-0.01-0.25-0.03-0.38
				c-0.04-0.25-0.09-0.5-0.17-0.74c-0.17-0.48-0.44-0.92-0.78-1.29c-0.69-0.75-1.68-1.18-2.69-1.17
				c-11.01,0.01-22.03-0.28-33.04-0.67c-5.49-0.17-11.04-0.41-16.49-0.45c-1.32,0.14-2.57,0.86-3.36,1.95
				c-0.4,0.54-0.69,1.17-0.84,1.83c-0.16,0.66-0.11,1.36-0.12,2.04c-0.09,1.37,0.35,2.77,1.28,3.78
				C634.95,942.92,636.3,943.54,637.68,943.55z M637.68,943.55c-1.38,0.02-2.75-0.59-3.69-1.61c-0.96-1.01-1.42-2.43-1.35-3.81
				c0.01-0.68-0.06-1.38,0.08-2.07c0.12-0.69,0.4-1.35,0.8-1.93c0.79-1.17,2.08-1.99,3.5-2.19l16.54-0.54
				c11.01-0.39,22.03-0.68,33.04-0.67c1.76,0,3.49,0.79,4.65,2.08c0.58,0.64,1.04,1.41,1.31,2.24c0.14,0.41,0.23,0.84,0.28,1.27
				c0.03,0.22,0.03,0.43,0.04,0.65l0,0.53l-0.01,1.03c-0.01,0.41-0.06,0.86-0.14,1.28c-0.18,0.85-0.55,1.65-1.06,2.34
				c-1.01,1.39-2.6,2.33-4.3,2.51c-0.92,0.08-1.49,0.01-2.21,0.01l-2.06-0.06l-4.13-0.11l-8.26-0.27
				C659.71,943.83,648.7,943.54,637.68,943.55z"/>
		</g>
	</g>
	<path class="st3" d="M660.81,816.58h3.95c2.54,0,4.62-2.08,4.62-4.62v-9.47c0-2.54-2.08-4.62-4.62-4.62h-3.95
		c-2.54,0-4.62,2.08-4.62,4.62v9.47C656.19,814.5,658.27,816.58,660.81,816.58z"/>
	<g>
		<path class="st0" d="M662.15,846.11h-34.19c-12.28,0-19.96-5.34-13.82-9.62l17.1-11.9l17.1-11.9c6.14-4.27,21.49-4.27,27.63,0
			l17.1,11.9l17.1,11.9c6.14,4.27-1.54,9.62-13.82,9.62H662.15z"/>
		<g>
			<path class="st1" d="M662.15,846.24l-14.08,0.09l-14.08,0.24c-2.35,0.02-4.68,0.14-7.05,0.18c-2.38,0.01-4.78-0.16-7.16-0.65
				c-2.36-0.51-4.75-1.19-6.9-2.8c-0.53-0.41-1.03-0.92-1.44-1.56c-0.41-0.64-0.69-1.48-0.63-2.35c0.05-0.87,0.41-1.65,0.85-2.25
				c0.44-0.61,0.95-1.11,1.48-1.51c7.6-5.65,15.08-11.24,22.66-16.8l5.7-4.13l2.85-2.06l1.43-1.03l0.72-0.51
				c0.25-0.17,0.45-0.33,0.78-0.52c2.42-1.55,4.93-2.27,7.4-2.79c2.48-0.49,4.97-0.72,7.46-0.74c2.49,0.03,4.97,0.25,7.46,0.74
				c2.48,0.52,4.98,1.24,7.4,2.79c1.08,0.71,1.95,1.37,2.92,2.07l2.85,2.06l5.7,4.13l22.66,16.8c0.53,0.4,1.04,0.9,1.48,1.51
				c0.43,0.6,0.8,1.38,0.84,2.24c0.06,0.86-0.23,1.71-0.63,2.34c-0.41,0.64-0.91,1.15-1.44,1.56c-2.14,1.61-4.53,2.29-6.89,2.8
				c-2.37,0.48-4.77,0.65-7.16,0.65l-7.05-0.17c-4.69-0.08-9.39-0.19-14.08-0.23L662.15,846.24z M662.15,845.97l28.16-0.03
				l7.03-0.02c2.33-0.07,4.67-0.31,6.94-0.84c2.25-0.54,4.52-1.31,6.32-2.75c0.87-0.71,1.6-1.72,1.51-2.82
				c-0.1-1.1-0.94-2.01-1.84-2.67l-23.12-16.06l-11.57-8.01c-1.94-1.23-4.21-1.91-6.48-2.36c-2.28-0.44-4.62-0.63-6.95-0.64
				c-2.33,0.01-4.66,0.2-6.95,0.64c-2.27,0.45-4.54,1.13-6.48,2.36l-11.57,8.01l-23.12,16.06c-0.9,0.67-1.75,1.57-1.84,2.67
				c-0.09,1.1,0.64,2.11,1.51,2.82c1.79,1.44,4.07,2.21,6.32,2.75c2.27,0.53,4.6,0.78,6.94,0.84l7.03,0.02L662.15,845.97z"/>
		</g>
	</g>
	<path class="st2" d="M630.46,835.65l15.13-13.32l13.48-11.87c-3.77,0.94-7.14,2.28-9.19,3.85l-15.38,11.84l-15.38,11.84
		c-5.52,4.25,2.72,7.08,14.84,5.08l3.65-0.6C630.19,842.18,626.32,839.3,630.46,835.65z"/>
</g>
<path d="M535.15,100.23c-34.31,46.02-56.43,28.22-62.77,19.54s-1.06-33.43-18.87-49.93c-17.8-16.5-44.91-19.23-70.53,6.51
	c-25.62,25.74,1.09,70.77,1.09,70.77l49.5-6.95c0,0-2.59-3.9,0.87-8.68c2.82-3.91-2.17,12.81,15.2,22.36
	c17.37,9.55,39.46,12.28,59.7-0.22C531.83,139.75,535.15,100.23,535.15,100.23z"/>
<path class="st0" d="M420.94,172.38l12.62-28.55c3.12-7.05-2.88-14.73-10.47-13.43l-34.04,5.85c-7.6,1.31-10.68,10.55-5.39,16.15
	l21.42,22.7C409.82,180.13,418.15,178.7,420.94,172.38z"/>
<g>
	<path class="st4" d="M313.21,388.95c0,0-31.83,10.04-32.18,40.89c-0.35,30.85,1.26,51.7,15.09,55.62
		c13.83,3.92,12.4-6.4,11.62-15.95c-0.79-9.55-19.11-38.41-2.37-48c16.74-9.58,23.75-17.92,23.75-17.92L313.21,388.95z"/>
	<g>
		<path class="st5" d="M313.21,388.95c-4.37,1.67-8.47,3.97-12.29,6.62c-3.79,2.68-7.27,5.82-10.15,9.43
			c-1.43,1.81-2.73,3.71-3.86,5.71c-1.1,2.01-2.05,4.11-2.79,6.27c-1.43,4.35-2.14,8.9-2.08,13.5c0,4.67,0.04,9.34,0.19,14
			c0.13,4.66,0.37,9.3,0.86,13.91c0.49,4.6,1.26,9.17,2.64,13.48c0.7,2.14,1.57,4.23,2.76,6.07c1.17,1.85,2.63,3.46,4.42,4.6
			c1.75,1.19,3.85,1.76,6.04,2.18c2.12,0.37,4.36,0.36,5.72-0.66c1.39-0.97,1.96-3.08,2.11-5.24c0.16-2.19,0-4.49-0.18-6.8
			c-0.1-1.14-0.16-2.4-0.33-3.36c-0.18-1.05-0.51-2.14-0.84-3.23c-0.69-2.18-1.51-4.36-2.31-6.55c-1.61-4.39-3.23-8.83-4.42-13.45
			c-1.15-4.59-2.01-9.45-1.13-14.37c0.45-2.43,1.43-4.85,3.03-6.82c0.39-0.5,0.86-0.93,1.29-1.39c0.48-0.41,0.97-0.8,1.46-1.19
			l1.57-1l1.51-0.87c4.03-2.31,7.97-4.79,11.73-7.52c3.73-2.75,7.43-5.65,10.58-8.99l0.04,0.68L313.21,388.95z M313.21,388.95
			l8.08,7.07l8.16,7.2l0.04,0.68c-3.14,3.59-6.71,6.67-10.43,9.56c-3.73,2.87-7.64,5.51-11.67,7.96l-1.51,0.91l-1.37,0.91
			l-1.23,1.06c-0.35,0.41-0.75,0.78-1.07,1.21c-1.32,1.7-2.11,3.76-2.47,5.92c-0.69,4.36,0.14,8.96,1.31,13.37
			c1.2,4.44,2.84,8.78,4.51,13.15c0.83,2.19,1.67,4.38,2.41,6.66c0.35,1.15,0.71,2.3,0.94,3.56c0.23,1.35,0.26,2.42,0.38,3.62
			c0.19,2.35,0.38,4.73,0.21,7.22c-0.08,1.24-0.28,2.52-0.73,3.8c-0.43,1.27-1.25,2.58-2.47,3.47c-1.21,0.89-2.65,1.29-3.98,1.38
			c-1.34,0.1-2.62-0.01-3.84-0.24c-1.24-0.24-2.38-0.49-3.61-0.93c-0.61-0.18-1.18-0.48-1.78-0.72c-0.56-0.32-1.15-0.58-1.67-0.96
			c-2.17-1.39-3.9-3.34-5.21-5.44c-1.34-2.11-2.27-4.39-3.01-6.68c-1.47-4.61-2.15-9.34-2.6-14.04c-0.88-9.42-0.78-18.81-0.6-28.18
			c0.02-4.76,0.88-9.56,2.53-14.05c0.85-2.24,1.89-4.39,3.1-6.45c1.23-2.04,2.64-3.97,4.19-5.76c3.11-3.59,6.78-6.63,10.73-9.19
			C304.5,392.46,308.75,390.37,313.21,388.95z"/>
	</g>
</g>
<g>
	<path class="st4" d="M579.58,376.28c0,0,32.34,8.26,48.91-17.75c16.57-26.02,26.2-44.58,16.52-55.21
		c-9.68-10.63-13.92-1.1-18.29,7.42s-4.03,42.71-23.31,42.03s-29.63,2.69-29.63,2.69L579.58,376.28z"/>
	<g>
		<path class="st5" d="M579.58,376.28c4.59,0.89,9.29,1.1,13.93,0.86c4.64-0.28,9.25-1.1,13.6-2.65c2.17-0.78,4.28-1.71,6.29-2.81
			c2-1.13,3.91-2.41,5.68-3.85c3.51-2.94,6.51-6.44,8.89-10.37c2.46-3.97,4.9-7.95,7.22-11.99c2.34-4.03,4.59-8.1,6.6-12.27
			c2.01-4.16,3.77-8.45,4.87-12.84c0.53-2.19,0.89-4.42,0.86-6.61c-0.02-2.19-0.41-4.33-1.33-6.24c-0.86-1.93-2.34-3.53-3.98-5.04
			c-1.61-1.43-3.51-2.61-5.2-2.46c-1.69,0.1-3.29,1.58-4.56,3.34c-1.29,1.78-2.36,3.81-3.43,5.87c-0.51,1.02-1.13,2.13-1.49,3.03
			c-0.4,0.99-0.7,2.09-0.99,3.18c-0.56,2.21-1.01,4.5-1.49,6.79c-0.95,4.58-1.92,9.21-3.34,13.75c-1.45,4.51-3.28,9.09-6.63,12.81
			c-1.67,1.83-3.77,3.36-6.17,4.2c-0.59,0.22-1.22,0.33-1.83,0.5c-0.62,0.1-1.24,0.17-1.87,0.25l-1.86,0.02l-1.74-0.06
			c-4.64-0.17-9.3-0.14-13.93,0.19c-4.62,0.37-9.29,0.88-13.73,2.05l0.32-0.6L579.58,376.28z M579.58,376.28l-3.13-10.27
			l-3.13-10.42l0.32-0.6c4.56-1.39,9.21-2.12,13.9-2.61c4.69-0.47,9.4-0.65,14.11-0.6l1.77,0.02l1.64-0.05l1.61-0.25
			c0.51-0.16,1.05-0.27,1.55-0.46c2.02-0.75,3.78-2.08,5.22-3.73c2.89-3.34,4.6-7.69,5.94-12.05c1.32-4.4,2.22-8.96,3.11-13.55
			c0.45-2.3,0.9-4.6,1.47-6.93c0.31-1.17,0.61-2.33,1.08-3.52c0.52-1.26,1.06-2.2,1.59-3.27c1.08-2.09,2.18-4.22,3.62-6.24
			c0.73-1.01,1.57-1.99,2.62-2.84c1.04-0.85,2.43-1.53,3.93-1.64c1.5-0.12,2.93,0.3,4.11,0.92c1.19,0.62,2.22,1.39,3.14,2.23
			c0.92,0.86,1.77,1.67,2.57,2.69c0.43,0.47,0.75,1.03,1.13,1.55c0.31,0.56,0.67,1.1,0.91,1.69c1.11,2.33,1.55,4.89,1.56,7.38
			c0.02,2.5-0.39,4.92-0.97,7.27c-1.19,4.69-3.1,9.07-5.2,13.3c-4.22,8.46-9.26,16.39-14.36,24.25c-2.53,4.03-5.79,7.66-9.56,10.6
			c-1.9,1.46-3.93,2.73-6.03,3.84c-2.12,1.09-4.34,1.97-6.6,2.68c-4.53,1.41-9.26,2.06-13.96,2.15
			C588.83,377.9,584.11,377.43,579.58,376.28z"/>
	</g>
</g>
<g>
	<path class="st6" d="M329.41,204.88c0,0-8.32-33.54-39.99-12.43s-21.83,38.34-21.83,38.34s9.77,14.66,19.49,17
		C296.8,250.11,329.41,204.88,329.41,204.88z"/>
	<g>
		<path class="st5" d="M329.41,204.88c-0.64-1.84-1.48-3.6-2.43-5.28c-0.93-1.68-1.98-3.29-3.18-4.77
			c-2.37-2.95-5.33-5.39-8.72-6.64c-1.67-0.66-3.45-0.99-5.23-1.06c-0.89-0.08-1.79,0.03-2.68,0.06l-1.34,0.2
			c-0.44,0.06-0.89,0.14-1.33,0.26c-3.52,0.83-6.93,2.35-10.12,4.27c-3.2,1.89-6.19,4.28-9.22,6.55c-1.42,1.24-2.87,2.45-4.26,3.7
			l-1.96,1.99c-0.64,0.68-1.35,1.29-1.9,2.03c-2.42,2.79-4.54,5.77-6.08,8.97c-1.51,3.2-2.27,6.66-1.99,9.95
			c0.02,0.41,0.05,0.82,0.13,1.22c0.07,0.4,0.11,0.81,0.23,1.19c0.1,0.39,0.19,0.78,0.33,1.12c0.06,0.18,0.12,0.36,0.19,0.51
			l0.08,0.2c-0.01-0.01-0.02-0.02-0.02-0.03l0.04,0.05c1.01,1.49,2.18,3.01,3.35,4.46c1.19,1.45,2.43,2.84,3.72,4.17
			c1.31,1.3,2.65,2.56,4.06,3.68c1.4,1.11,2.87,2.14,4.39,2.82c0.38,0.18,0.75,0.38,1.13,0.48l1.08,0.36
			c0.16,0.07,0.8,0.02,1.48-0.25c1.41-0.52,2.96-1.51,4.43-2.59c1.49-1.07,2.94-2.29,4.36-3.54c2.85-2.51,5.55-5.26,8.24-8.02
			c2.69-2.77,5.3-5.62,7.89-8.51C319.29,216.72,324.33,210.8,329.41,204.88z M329.41,204.88c-4.09,6.65-8.57,13.04-13.23,19.31
			c-4.73,6.22-9.62,12.35-15.27,17.96c-1.42,1.4-2.89,2.77-4.48,4.07c-1.61,1.28-3.3,2.51-5.52,3.44c-1.11,0.43-2.44,0.87-4.21,0.57
			c-0.25-0.04-0.32-0.08-0.48-0.12l-0.41-0.12l-0.82-0.25c-0.56-0.15-1.06-0.38-1.57-0.6c-2.06-0.86-3.84-2.04-5.53-3.27
			c-3.34-2.52-6.14-5.48-8.75-8.56c-1.29-1.56-2.51-3.12-3.71-4.83l-0.17-0.25l-0.19-0.35c-0.11-0.21-0.14-0.31-0.22-0.47
			c-0.14-0.29-0.24-0.57-0.34-0.85c-0.22-0.56-0.37-1.11-0.51-1.67c-0.17-0.55-0.24-1.11-0.34-1.67c-0.11-0.56-0.17-1.11-0.19-1.67
			c-0.11-1.12-0.04-2.23,0.02-3.33c0.07-1.1,0.31-2.17,0.47-3.25c0.29-1.04,0.58-2.09,0.89-3.12l1.22-2.96
			c0.98-1.86,1.96-3.74,3.21-5.39c1.13-1.76,2.53-3.26,3.88-4.8c0.65-0.8,1.43-1.44,2.15-2.16l2.2-2.09
			c1.54-1.29,3.12-2.53,4.68-3.79c1.61-1.18,3.27-2.29,4.91-3.41c0.81-0.57,1.68-1.09,2.55-1.6c0.87-0.52,1.73-1.03,2.64-1.48
			c3.58-1.87,7.43-3.43,11.56-4.06c0.51-0.1,1.03-0.16,1.55-0.19c0.52-0.04,1.04-0.09,1.56-0.11c1.05,0.03,2.1,0,3.15,0.16
			c2.09,0.24,4.16,0.79,6.04,1.73c3.78,1.85,6.76,4.86,8.88,8.23C327.18,197.34,328.63,201.06,329.41,204.88z"/>
	</g>
</g>
<g>
	<path class="st6" d="M563.22,236.79c0,0,33.99-6.23,14.88-39.15c-19.12-32.91-36.92-24.15-36.92-24.15s-15.24,8.85-18.17,18.41
		C520.09,201.45,563.22,236.79,563.22,236.79z"/>
	<g>
		<path class="st5" d="M563.22,236.79c1.88-0.53,3.68-1.26,5.41-2.1c1.74-0.83,3.41-1.77,4.95-2.88c3.09-2.19,5.71-4.99,7.16-8.29
			c0.76-1.63,1.2-3.38,1.38-5.16c0.13-0.88,0.08-1.79,0.1-2.68l-0.12-1.35c-0.03-0.45-0.08-0.89-0.18-1.34
			c-0.61-3.57-1.91-7.06-3.64-10.36c-1.69-3.31-3.89-6.45-5.97-9.61c-1.15-1.49-2.27-3.01-3.43-4.48l-1.87-2.08
			c-0.63-0.68-1.21-1.43-1.91-2.02c-2.63-2.59-5.48-4.89-8.58-6.62c-3.1-1.7-6.5-2.67-9.81-2.6c-0.41,0-0.83,0-1.23,0.06
			c-0.4,0.05-0.82,0.06-1.2,0.15c-0.39,0.07-0.79,0.14-1.14,0.26c-0.19,0.05-0.37,0.1-0.52,0.16l-0.2,0.07
			c0.01,0,0.02-0.01,0.03-0.02l-0.05,0.03c-1.55,0.92-3.14,1.99-4.66,3.07c-1.52,1.09-2.98,2.25-4.39,3.45
			c-1.38,1.23-2.72,2.49-3.92,3.82c-1.19,1.33-2.31,2.73-3.09,4.2c-0.21,0.36-0.43,0.73-0.55,1.1l-0.43,1.05
			c-0.08,0.15-0.07,0.79,0.15,1.49c0.43,1.43,1.33,3.05,2.32,4.58c0.98,1.55,2.1,3.07,3.26,4.57c2.33,3,4.9,5.86,7.5,8.72
			c2.6,2.85,5.28,5.64,8.01,8.4C552.03,225.96,557.63,231.35,563.22,236.79z M563.22,236.79c-6.38-4.49-12.48-9.36-18.46-14.4
			c-5.92-5.11-11.73-10.36-16.98-16.35c-1.31-1.51-2.59-3.05-3.78-4.73c-1.18-1.69-2.3-3.45-3.09-5.72
			c-0.36-1.14-0.72-2.49-0.31-4.24c0.05-0.25,0.1-0.32,0.15-0.47l0.15-0.4l0.3-0.81c0.18-0.55,0.44-1.04,0.7-1.53
			c0.98-2,2.27-3.71,3.61-5.31c2.72-3.18,5.85-5.79,9.08-8.2c1.64-1.2,3.27-2.32,5.05-3.4l0.26-0.15l0.36-0.17
			c0.22-0.09,0.32-0.12,0.48-0.19c0.3-0.12,0.59-0.21,0.87-0.29c0.57-0.19,1.13-0.3,1.69-0.41c0.56-0.14,1.12-0.17,1.69-0.24
			c0.56-0.08,1.12-0.1,1.68-0.09c1.13-0.04,2.22,0.09,3.32,0.22c1.1,0.14,2.15,0.45,3.22,0.67c1.02,0.35,2.05,0.7,3.06,1.08
			l2.88,1.4c1.8,1.1,3.62,2.19,5.18,3.54c1.68,1.24,3.1,2.72,4.55,4.17c0.76,0.7,1.35,1.52,2.02,2.28l1.95,2.33
			c1.2,1.62,2.33,3.27,3.5,4.9c1.07,1.68,2.08,3.4,3.1,5.11c0.52,0.84,0.98,1.74,1.44,2.64c0.46,0.9,0.93,1.79,1.31,2.73
			c1.64,3.69,2.97,7.63,3.34,11.79c0.07,0.51,0.09,1.04,0.09,1.56c0,0.52,0.02,1.05,0.01,1.57c-0.09,1.05-0.13,2.1-0.36,3.13
			c-0.37,2.07-1.05,4.1-2.1,5.92c-2.08,3.65-5.27,6.45-8.77,8.36C570.89,235.02,567.08,236.24,563.22,236.79z"/>
	</g>
</g>
<g>
	<path class="st6" d="M519.09,827.5c-7.82-38.21-275.28-137.2-198.86-268.33s-107.68-243.15-16.5-337.8s215.36-33,215.36-33
		s65.13,33,66,151.97c0.86,118.24,6.22,200.16-115.63,294.51c-1.38,1.07-2.83,2.04-4.33,2.92c-12.82,7.51-79.49,49.15-43.29,83.78
		C461.78,759.77,523.44,819.69,519.09,827.5"/>
	<path class="st5" d="M518.82,827.56c-0.48-2.15-1.65-4.08-2.9-5.9c-0.69-0.87-1.33-1.79-2.1-2.6c-0.73-0.84-1.48-1.67-2.29-2.44
		c-3.15-3.17-6.6-6.05-10.11-8.83c-7.07-5.52-14.46-10.63-21.89-15.66c-14.9-10.02-30.04-19.71-44.95-29.74
		c-14.92-10.02-29.67-20.32-43.9-31.32c-14.22-11-27.98-22.67-40.58-35.57c-12.55-12.89-24.03-27.06-32.49-43.1
		c-4.24-7.99-7.56-16.51-9.66-25.34c-2.08-8.83-3.01-18-2.24-27.07c0.72-9.08,2.9-18.01,6.24-26.46c0.43-1.05,0.79-2.13,1.27-3.16
		l1.44-3.09c0.49-1.02,0.93-2.08,1.47-3.07l1.62-2.99l3.23-5.91l1.61-2.93l1.47-3c7.89-15.96,12.7-33.45,13.62-51.22
		c0.98-17.78-1.6-35.63-6.34-52.82c-4.69-17.24-11.36-33.9-18.5-50.34c-7.14-16.45-14.83-32.7-21.62-49.42
		c-3.37-8.36-6.52-16.84-9.11-25.53c-2.55-8.69-4.63-17.58-5.55-26.66c-1.01-9.06-0.79-18.33,0.88-27.37l0.71-3.37
		c0.21-1.13,0.58-2.22,0.87-3.34c0.55-2.23,1.37-4.39,2.1-6.57c1.68-4.27,3.53-8.5,5.87-12.45c1.08-2.03,2.39-3.91,3.62-5.85
		c0.6-0.98,1.32-1.87,1.98-2.8c0.68-0.92,1.34-1.86,2.04-2.76c2.86-3.56,5.85-7.05,9.08-10.24l4.86-4.76l2.43-2.38l2.58-2.22
		l5.16-4.44c0.43-0.37,0.85-0.75,1.3-1.1l1.36-1.03l2.72-2.05c1.83-1.35,3.6-2.77,5.47-4.06l5.7-3.74l2.85-1.87l2.97-1.68l5.93-3.37
		c2.03-1.03,4.08-2,6.13-3l3.07-1.49c1.03-0.48,2.1-0.88,3.14-1.32l6.31-2.6l6.45-2.23l3.23-1.1l3.29-0.92
		c2.2-0.59,4.37-1.26,6.58-1.79l6.66-1.46l1.67-0.37l1.68-0.28l3.36-0.55c2.24-0.37,4.48-0.77,6.75-0.97
		c2.26-0.25,4.52-0.53,6.78-0.74l6.8-0.44l1.7-0.11l1.7-0.03l3.41-0.07c18.17-0.32,36.33,1.92,53.98,6.07
		c8.83,2.09,17.55,4.63,26.08,7.74c4.27,1.54,8.5,3.21,12.68,5.1l1.6,0.74c0.64,0.32,1.1,0.6,1.63,0.91c1.02,0.6,2,1.23,2.97,1.88
		c1.92,1.3,3.78,2.67,5.59,4.1c7.21,5.74,13.6,12.39,19.28,19.56c5.72,7.15,10.62,14.91,14.9,22.97
		c4.27,8.07,7.85,16.48,10.84,25.08l1.09,3.24c0.38,1.08,0.73,2.16,1.03,3.25l1.92,6.55l1.68,6.61c0.57,2.2,0.97,4.44,1.47,6.66
		l0.7,3.34l0.58,3.36c0.37,2.24,0.81,4.47,1.11,6.72l0.9,6.75c0.16,1.12,0.29,2.25,0.39,3.38l0.33,3.39c0.51,4.51,0.72,9.04,1,13.57
		c0.18,2.26,0.16,4.53,0.24,6.79l0.16,6.79c0.14,17.96,0.46,35.93,0.26,53.95c-0.1,9.01-0.34,18.02-0.76,27.04
		c-0.1,2.25-0.26,4.51-0.39,6.76c-0.13,2.25-0.26,4.51-0.46,6.76l-0.55,6.76l-0.71,6.75c-1.03,8.99-2.28,17.98-4.13,26.87
		l-0.66,3.34l-0.77,3.32c-0.53,2.21-1,4.43-1.58,6.63l-1.79,6.58c-0.28,1.1-0.61,2.19-0.97,3.27l-1.03,3.25
		c-1.3,4.36-2.99,8.59-4.52,12.87c-1.77,4.19-3.39,8.44-5.39,12.53l-1.44,3.09c-0.47,1.03-0.96,2.06-1.5,3.06l-3.15,6.05
		c-0.51,1.02-1.07,2-1.65,2.98l-1.71,2.95c-1.15,1.96-2.23,3.96-3.5,5.85c-9.66,15.38-20.91,29.73-33.44,42.79
		c-12.49,13.11-26,25.16-40.1,36.41l-5.31,4.2c-1.72,1.38-3.63,2.87-5.66,4.08l-2.91,1.73l-2.84,1.74c-1.88,1.19-3.75,2.38-5.6,3.62
		c-7.39,4.94-14.5,10.33-21.05,16.29c-6.48,6-12.51,12.6-16.83,20.16c-2.12,3.79-3.76,7.83-4.49,12.02
		c-0.75,4.18-0.51,8.5,0.83,12.51c1.33,4.02,3.7,7.68,6.56,10.92l2.23,2.38l2.42,2.34l4.84,4.69c6.44,6.26,12.88,12.54,19.26,18.86
		c12.76,12.66,25.43,25.42,37.77,38.49c6.16,6.55,12.26,13.16,18.11,20c2.91,3.43,5.77,6.91,8.44,10.54
		c1.33,1.82,2.62,3.68,3.77,5.63c0.56,0.98,1.1,1.99,1.52,3.06c0.2,0.54,0.4,1.08,0.49,1.67c0.08,0.58,0.14,1.23-0.19,1.83
		c-0.07,0.13-0.24,0.18-0.38,0.11c-0.13-0.07-0.18-0.24-0.11-0.38c0.22-0.41,0.18-0.95,0.09-1.46c-0.09-0.52-0.28-1.04-0.49-1.54
		c-0.42-1.01-0.97-1.98-1.54-2.93c-1.17-1.89-2.48-3.71-3.84-5.48c-2.73-3.55-5.65-6.95-8.62-10.3
		c-5.95-6.71-12.14-13.21-18.41-19.64c-12.55-12.84-25.42-25.36-38.38-37.79l-19.49-18.6l-4.89-4.63l-2.45-2.31l-2.41-2.51
		c-3.11-3.44-5.79-7.42-7.34-11.93c-1.57-4.49-1.9-9.42-1.12-14.08c0.77-4.68,2.51-9.1,4.72-13.17c4.52-8.12,10.7-15.02,17.3-21.28
		c6.66-6.22,13.85-11.8,21.33-16.93c3.72-2.56,7.63-5.02,11.44-7.28c1.83-1.11,3.46-2.4,5.23-3.84l5.23-4.2
		c13.89-11.25,27.17-23.26,39.38-36.27c12.26-12.95,23.19-27.11,32.53-42.22c1.22-1.86,2.26-3.82,3.38-5.74l1.65-2.89
		c0.56-0.96,1.1-1.93,1.59-2.92l3.04-5.92c0.52-0.98,0.99-1.99,1.44-3l1.39-3.02c1.93-4,3.48-8.16,5.18-12.26
		c1.47-4.19,3.08-8.32,4.32-12.58l1-3.17c0.34-1.05,0.66-2.12,0.94-3.19l1.74-6.43c0.56-2.15,1.02-4.32,1.53-6.48l0.75-3.25
		l0.64-3.27c1.79-8.71,3-17.54,4-26.39l0.69-6.65l0.53-6.67c0.19-2.22,0.32-4.45,0.45-6.68c0.12-2.23,0.28-4.46,0.37-6.69
		c0.4-8.93,0.62-17.87,0.7-26.83c0.17-17.91-0.04-35.87-0.14-53.85l-0.14-6.68c-0.07-2.22-0.05-4.45-0.22-6.67
		c-0.26-4.44-0.46-8.89-0.95-13.31l-0.31-3.32c-0.09-1.11-0.21-2.21-0.37-3.31l-0.87-6.61c-0.29-2.2-0.72-4.38-1.07-6.57l-0.56-3.28
		l-0.68-3.26c-0.47-2.17-0.86-4.36-1.4-6.51l-1.6-6.46l-1.84-6.39c-0.29-1.07-0.63-2.12-0.99-3.17l-1.05-3.15
		c-2.86-8.38-6.3-16.56-10.4-24.39c-4.1-7.82-8.8-15.34-14.27-22.25c-5.43-6.93-11.55-13.35-18.37-18.83
		c-1.7-1.37-3.46-2.67-5.25-3.9c-0.9-0.6-1.81-1.19-2.72-1.74c-0.44-0.26-0.94-0.56-1.31-0.74l-1.45-0.69
		c-4-1.83-8.13-3.48-12.3-5.01c-8.33-3.08-16.88-5.62-25.52-7.71c-17.29-4.16-35.06-6.43-52.83-6.21l-3.33,0.05l-1.67,0.03
		l-1.66,0.1l-6.65,0.4c-2.21,0.2-4.41,0.47-6.62,0.7c-2.21,0.19-4.4,0.57-6.59,0.93l-3.29,0.53l-1.64,0.27l-1.63,0.35l-6.5,1.4
		c-2.16,0.5-4.28,1.15-6.42,1.72l-3.21,0.88l-3.15,1.06l-6.29,2.14l-6.16,2.51c-1.02,0.43-2.06,0.81-3.07,1.28l-3,1.44
		c-1.99,0.97-4,1.91-5.98,2.9l-5.8,3.26l-2.9,1.63l-2.79,1.81l-5.58,3.63c-1.83,1.25-3.57,2.64-5.36,3.95l-2.67,1.99l-1.33,1
		c-0.43,0.35-0.85,0.72-1.27,1.07l-5.07,4.33l-2.53,2.16l-2.39,2.32l-4.78,4.64c-3.18,3.11-6.05,6.44-8.83,9.87
		c-0.68,0.87-1.31,1.77-1.97,2.65c-0.64,0.9-1.35,1.75-1.92,2.69c-1.19,1.85-2.45,3.65-3.49,5.59c-2.26,3.77-4.04,7.8-5.66,11.87
		c-0.7,2.08-1.5,4.12-2.03,6.25c-0.27,1.06-0.64,2.1-0.84,3.18l-0.69,3.22c-1.63,8.63-1.88,17.51-0.94,26.3
		c0.86,8.8,2.85,17.5,5.33,26.04c2.51,8.55,5.6,16.94,8.9,25.25c6.67,16.61,14.29,32.88,21.39,49.42
		c7.1,16.53,13.77,33.35,18.45,50.82c4.74,17.43,7.31,35.61,6.23,53.76c-1.04,18.13-6.05,35.97-14.15,52.16l-1.52,3.04l-1.65,2.97
		l-3.26,5.89l-1.6,2.92c-0.54,0.97-0.96,2-1.45,3l-1.42,3.01c-0.47,1-0.83,2.06-1.26,3.08c-3.31,8.23-5.48,16.93-6.22,25.76
		c-0.8,8.84,0.06,17.78,2.05,26.42c2.02,8.65,5.23,17.03,9.36,24.93c8.25,15.84,19.56,29.96,31.96,42.83
		c12.45,12.88,26.1,24.59,40.23,35.63c14.15,11.04,28.82,21.41,43.68,31.49c14.85,10.1,29.93,19.86,44.8,29.97
		c7.42,5.07,14.79,10.22,21.86,15.8c3.51,2.81,6.96,5.72,10.13,8.93c0.81,0.79,1.56,1.63,2.3,2.48c0.77,0.82,1.42,1.76,2.12,2.65
		c1.27,1.87,2.47,3.86,2.97,6.13c0.03,0.15-0.06,0.3-0.21,0.33C519.01,827.81,518.86,827.72,518.82,827.56L518.82,827.56z"/>
</g>
<path class="st5" d="M316.05,209.52c-6.25-4.86-15.27-4.48-21.08,1.21c-5.81,5.69-6.36,14.71-1.63,21.05L316.05,209.52z"/>
<path class="st5" d="M556.77,224.94c5.59-5.61,6.32-14.61,1.38-21.07c-4.94-6.46-13.82-8.11-20.7-4.19L556.77,224.94z"/>
<path class="st7" d="M495.32,212.6c0,0,65.13,33,66,151.97c0.72,99.03,2.51,170.42-67.84,247.14
	c93.71-85.11,91.21-160.92,90.42-269.53c-0.87-118.97-66-151.97-66-151.97s-121.66-59.93-212.84,34.73
	c-2.52,2.61-5.17,7.2-7.27,9.84C386.87,161.37,495.32,212.6,495.32,212.6z"/>
<g>
	<path class="st0" d="M342.19,531.8l233.27-26.56c5.77-0.66,9.95-5.91,9.29-11.68l-1.24-10.88c-0.66-5.77-5.91-9.95-11.68-9.29
		l-233.27,26.56c-5.77,0.66-9.95,5.91-9.29,11.68l1.24,10.88C331.17,528.27,336.43,532.46,342.19,531.8z"/>
	<g>
		<path class="st5" d="M342.16,531.52l17.3-2.07c5.76-0.77,11.53-1.47,17.28-2.3c11.51-1.59,23.01-3.33,34.52-4.96
			c23-3.39,46.07-6.15,69.2-8.45l34.72-3.18l17.36-1.57l17.34-1.73c5.77-0.64,11.55-1.23,17.32-1.92c2.87-0.35,5.81-0.66,8.61-1.04
			c2.64-0.41,5.03-2.02,6.46-4.25c0.73-1.11,1.2-2.37,1.41-3.67c0.23-1.33,0.09-2.55-0.11-4.05l-1.14-8.64
			c-0.09-0.75-0.19-1.38-0.35-1.99c-0.17-0.62-0.39-1.22-0.68-1.79c-0.58-1.14-1.39-2.15-2.37-2.96c-1.95-1.63-4.56-2.39-7.02-2.04
			c-11.52,1.55-23.03,3.16-34.55,4.64c-11.52,1.51-23.05,2.92-34.59,4.32l-34.6,4.22c-5.76,0.72-11.54,1.38-17.31,2.04l-17.32,1.97
			c-11.56,1.21-23.1,2.53-34.66,3.66l-8.67,0.86l-8.68,0.78c-5.79,0.54-11.58,0.98-17.37,1.46l-17.38,1.42
			c-2.87,0.24-5.84,0.45-8.64,0.73c-2.62,0.32-5.08,1.83-6.64,4.04c-0.79,1.1-1.33,2.38-1.6,3.71c-0.29,1.35-0.18,2.69-0.01,4.16
			l0.84,8.67c0.11,2.86,1.37,5.56,3.51,7.42C336.44,530.89,339.34,531.84,342.16,531.52z M342.22,532.07
			c-2.97,0.37-6.06-0.59-8.33-2.54c-1.14-0.97-2.08-2.18-2.74-3.53c-0.68-1.33-0.98-2.88-1.15-4.31l-1.14-8.64
			c-0.21-1.4-0.39-2.99-0.13-4.51c0.23-1.52,0.77-3.01,1.6-4.33c1.65-2.64,4.45-4.58,7.58-5.15c2.96-0.48,5.77-0.86,8.67-1.29
			l17.25-2.52c5.75-0.83,11.5-1.71,17.26-2.48l8.63-1.19l8.64-1.11c11.52-1.5,23.07-2.81,34.6-4.23l17.32-1.97
			c5.77-0.65,11.54-1.31,17.32-1.91l34.66-3.66c11.55-1.23,23.11-2.44,34.68-3.56c11.56-1.14,23.14-2.16,34.71-3.24
			c3.32-0.34,6.71,0.81,9.14,3c1.22,1.09,2.21,2.43,2.89,3.91c0.34,0.74,0.6,1.52,0.78,2.31c0.18,0.8,0.26,1.62,0.32,2.31l0.83,8.68
			c0.16,1.37,0.32,3.08,0.01,4.62c-0.29,1.56-0.89,3.06-1.79,4.37c-1.77,2.62-4.64,4.46-7.75,4.94c-2.96,0.38-5.79,0.65-8.7,0.99
			c-5.78,0.63-11.54,1.35-17.31,2.03l-17.29,2.21l-17.27,2.37l-34.55,4.7c-23.05,2.96-46.15,5.46-69.33,7.32
			c-11.58,1-23.17,1.88-34.75,2.92c-5.79,0.48-11.57,1.09-17.35,1.64L342.22,532.07z"/>
	</g>
</g>
<g>
	<path class="st8" d="M323.92,371.56c0,0,63.94,75.43,46.31,128s-37.45,25.25-55.68,49.97s35.84-147.81-12.7-161.62
		S323.92,371.56,323.92,371.56z"/>
	<path class="st5" d="M323.98,371.41c0.29,0.28,0.44,0.49,0.65,0.71l0.59,0.68l1.17,1.36c0.77,0.91,1.54,1.83,2.29,2.76
		c1.5,1.86,2.99,3.73,4.44,5.63c2.91,3.79,5.75,7.64,8.44,11.59c5.39,7.9,10.49,16.02,14.99,24.49c4.55,8.44,8.48,17.23,11.67,26.31
		c0.43,1.13,0.77,2.28,1.14,3.43c0.36,1.15,0.74,2.29,1.07,3.45l0.93,3.5l0.46,1.75l0.38,1.77l0.76,3.54
		c0.21,1.19,0.38,2.39,0.57,3.58c0.43,2.38,0.56,4.81,0.82,7.21c0.09,1.21,0.09,2.42,0.13,3.63c0.04,1.21,0.08,2.42,0,3.63
		l-0.16,3.63c-0.1,1.21-0.28,2.41-0.41,3.62l-0.22,1.8c-0.1,0.6-0.24,1.19-0.35,1.79l-0.73,3.56l-1.05,3.49
		c-0.18,0.58-0.34,1.17-0.54,1.73l-0.63,1.69c-1.63,4.51-3.51,8.94-5.73,13.2c-2.22,4.25-4.76,8.41-8.07,11.94
		c-3.25,3.58-7.42,6.37-11.99,7.97c-4.56,1.65-9.35,2.27-13.84,3.66c-2.25,0.69-4.42,1.59-6.43,2.77c-1.99,1.2-3.86,2.63-5.48,4.31
		c-0.43,0.39-0.8,0.85-1.19,1.28c-0.38,0.44-0.8,0.85-1.14,1.33c-0.73,0.93-1.39,1.84-2.19,2.85c-0.42,0.48-0.84,0.96-1.51,1.39
		c-0.33,0.19-0.87,0.44-1.54,0.21c-0.65-0.27-0.87-0.76-1.03-1.1c-0.29-0.73-0.35-1.36-0.42-2c-0.05-0.63-0.07-1.25-0.07-1.86
		c0.07-4.88,0.72-9.61,1.3-14.36c0.6-4.74,1.29-9.46,1.99-14.18c1.39-9.44,2.76-18.87,4-28.3c1.22-9.44,2.28-18.9,2.98-28.37
		c0.69-9.47,1.13-18.95,0.83-28.4c-0.29-9.41-1.22-18.9-4.13-27.72c-1.49-4.37-3.56-8.56-6.64-11.85c-1.53-1.64-3.31-3.02-5.29-4.04
		c-0.99-0.5-2.02-0.94-3.1-1.26c-1.11-0.35-2.29-0.69-3.43-1.06c-2.29-0.74-4.58-1.51-6.82-2.47c-1.12-0.47-2.23-0.99-3.33-1.58
		c-1.09-0.6-2.18-1.24-3.17-2.26c-0.48-0.49-1-1.16-1.13-2.12c-0.03-0.23-0.01-0.49,0.01-0.73c0.05-0.23,0.12-0.47,0.21-0.68
		c0.1-0.19,0.21-0.39,0.33-0.56c0.13-0.15,0.26-0.31,0.39-0.45c1.1-1.02,2.29-1.49,3.46-1.93c2.35-0.84,4.71-1.33,7.09-1.75
		c4.74-0.84,9.51-1.27,14.28-1.61c2.38-0.17,4.77-0.3,7.15-0.41l3.58-0.12l1.79-0.04l0.9-0.02l0.45-0.01
		C323.6,371.4,323.77,371.39,323.98,371.41z M323.85,371.7c-9.36,0.74-18.99,1.61-28.23,3.49c-2.3,0.49-4.61,1.06-6.73,1.9
		c-1.04,0.42-2.09,0.94-2.71,1.58c-0.3,0.33-0.39,0.58-0.34,0.78c0.04,0.23,0.25,0.59,0.62,0.92c0.69,0.68,1.7,1.26,2.71,1.77
		c1.02,0.5,2.08,0.97,3.18,1.38c2.18,0.83,4.42,1.57,6.68,2.24c1.14,0.35,2.26,0.64,3.42,0.98c1.22,0.34,2.4,0.81,3.55,1.36
		c2.28,1.12,4.36,2.66,6.12,4.47c3.54,3.64,5.86,8.16,7.53,12.76c1.67,4.62,2.68,9.41,3.38,14.2c0.69,4.8,1.06,9.61,1.25,14.42
		c0.59,19.27-1.61,38.36-4.24,57.28c-1.32,9.47-2.89,18.89-4.47,28.29l-2.34,14.1c-0.72,4.69-1.51,9.42-1.71,14.08
		c-0.02,0.58-0.02,1.15,0.02,1.71c0.03,0.55,0.11,1.11,0.25,1.5c0.07,0.19,0.17,0.27,0.09,0.22c-0.1-0.02-0.02,0.02,0.16-0.08
		c0.35-0.2,0.76-0.6,1.13-1.01l2.24-2.76c0.37-0.48,0.81-0.9,1.22-1.36c0.42-0.44,0.81-0.91,1.28-1.3
		c3.49-3.41,7.91-5.84,12.54-7.18c4.63-1.38,9.4-1.95,13.84-3.51c4.47-1.51,8.41-4.26,11.56-7.75c0.81-0.85,1.52-1.8,2.25-2.72
		c0.66-0.98,1.4-1.9,1.99-2.92c0.61-1.01,1.26-1.99,1.8-3.05c0.56-1.04,1.15-2.06,1.63-3.15c2.05-4.26,3.76-8.69,5.23-13.2
		l0.56-1.69c0.18-0.56,0.31-1.13,0.46-1.7l0.91-3.4l0.6-3.46c0.09-0.58,0.21-1.15,0.29-1.73l0.15-1.75c0.09-1.17,0.23-2.33,0.29-3.5
		l0.04-3.52c0.05-1.17-0.03-2.34-0.11-3.52c-0.08-1.17-0.11-2.34-0.21-3.51c-0.92-9.35-3.1-18.58-6.17-27.51
		c-0.78-2.23-1.54-4.47-2.43-6.66c-0.83-2.21-1.76-4.39-2.7-6.57c-0.91-2.18-1.94-4.32-2.91-6.48c-1.05-2.12-2.04-4.28-3.15-6.38
		c-2.15-4.23-4.44-8.39-6.78-12.53c-2.39-4.11-4.84-8.18-7.41-12.18c-2.59-3.99-5.2-7.97-7.93-11.87c-1.36-1.96-2.75-3.89-4.15-5.81
		l-2.12-2.87L323.85,371.7z"/>
</g>
<g>
	<path class="st8" d="M569.75,350.91c0,0-30.39,87.39,5.97,118.7c36.36,31.31,44.28,1.25,70.57,11.24
		c26.29,9.99-89.53-94.56-49.89-128.09C636.04,319.23,569.75,350.91,569.75,350.91z"/>
	<path class="st5" d="M569.86,351.01c-1.17,4.04-2.32,8.29-3.34,12.45c-1.02,4.19-1.93,8.41-2.8,12.63
		c-0.84,4.23-1.6,8.47-2.24,12.73c-0.61,4.26-1.16,8.53-1.54,12.81c-0.23,2.14-0.34,4.28-0.5,6.42c-0.09,2.14-0.21,4.29-0.24,6.43
		c-0.04,2.14-0.07,4.28,0,6.42c0.01,2.14,0.17,4.27,0.3,6.41c0.37,4.25,0.84,8.5,1.75,12.65c0.38,2.1,0.99,4.13,1.52,6.18
		c0.27,1.03,0.67,2.01,0.99,3.02l0.51,1.5c0.17,0.5,0.41,0.97,0.61,1.46l1.25,2.92l1.48,2.8c0.46,0.96,1.06,1.82,1.64,2.7l0.86,1.33
		c0.15,0.22,0.28,0.45,0.44,0.66l0.5,0.61l1.99,2.46c0.7,0.79,1.48,1.5,2.22,2.25l1.13,1.12l1.22,1.05
		c0.82,0.69,1.61,1.42,2.46,2.08c3.31,2.72,6.83,5.19,10.57,7.26c3.74,2.06,7.79,3.57,12,4.19c2.11,0.27,4.24,0.35,6.36,0.18
		c2.12-0.18,4.23-0.57,6.3-1.11c4.15-1.06,8.21-2.61,12.48-3.56c2.13-0.49,4.31-0.81,6.51-0.87c2.2-0.08,4.42,0.03,6.58,0.46
		c1.1,0.15,2.15,0.49,3.22,0.74l3.1,1.02c0.49,0.16,0.98,0.28,1.44,0.34c0.23,0.04,0.43,0.02,0.6,0.01
		c0.15-0.03,0.19-0.07,0.18-0.07c0.03,0.02,0.05-0.46-0.11-0.89c-0.14-0.44-0.35-0.91-0.59-1.36c-0.96-1.83-2.2-3.6-3.45-5.33
		c-1.26-1.74-2.56-3.45-3.88-5.15l-8.02-10.17c-5.37-6.78-10.72-13.59-15.84-20.59c-5.13-6.99-10.09-14.12-14.67-21.52
		c-4.56-7.41-8.73-15.12-11.92-23.31c-1.57-4.1-2.87-8.34-3.66-12.72c-0.78-4.37-1.05-8.94-0.18-13.43
		c0.83-4.48,2.92-8.79,6.06-12.12c0.77-0.84,1.62-1.6,2.48-2.33l2.46-2.08c1.63-1.4,3.23-2.82,4.76-4.3
		c1.53-1.47,3.01-3.02,4.19-4.64c0.28-0.41,0.55-0.82,0.72-1.21c0.21-0.39,0.23-0.77,0.22-0.82c-0.02-0.01,0.01-0.03-0.08-0.08
		c-0.07-0.05-0.23-0.11-0.41-0.16c-0.37-0.1-0.87-0.09-1.35-0.09c-2,0.11-4.1,0.63-6.15,1.18c-2.06,0.57-4.1,1.23-6.13,1.93
		c-4.06,1.42-8.1,2.95-12.1,4.56C577.78,347.62,573.73,349.35,569.86,351.01z M569.64,350.81c3.95-2.04,7.78-3.85,11.74-5.67
		c3.94-1.8,7.91-3.54,11.96-5.09c2.03-0.78,4.07-1.52,6.16-2.17c2.1-0.64,4.2-1.26,6.52-1.47c0.6-0.02,1.19-0.06,1.88,0.07
		c0.34,0.07,0.71,0.17,1.09,0.41c0.19,0.09,0.38,0.3,0.55,0.46c0.16,0.19,0.29,0.44,0.39,0.67c0.3,1,0.01,1.74-0.21,2.32
		c-0.25,0.61-0.55,1.11-0.87,1.61c-1.29,1.93-2.81,3.52-4.35,5.09c-1.55,1.56-3.15,3.04-4.77,4.49l-2.45,2.16
		c-0.77,0.69-1.52,1.38-2.19,2.15c-2.74,3.03-4.49,6.84-5.16,10.87c-0.68,4.04-0.41,8.25,0.36,12.36c0.78,4.12,2.07,8.17,3.62,12.13
		c3.08,7.93,7.2,15.48,11.6,22.84c4.43,7.36,9.27,14.49,14.28,21.49c5.03,7,10.22,13.9,15.44,20.79c2.61,3.44,5.23,6.89,7.77,10.4
		c1.27,1.75,2.54,3.52,3.76,5.32c1.21,1.81,2.42,3.63,3.41,5.66c0.24,0.51,0.47,1.04,0.65,1.63c0.08,0.3,0.16,0.61,0.17,0.98
		c0.02,0.34-0.02,0.83-0.33,1.27c-0.32,0.45-0.83,0.63-1.2,0.68c-0.38,0.04-0.72,0.03-1.02-0.02c-0.62-0.09-1.17-0.26-1.71-0.44
		l-3.03-1.09c-1.02-0.26-2.03-0.62-3.07-0.79c-4.14-0.91-8.46-0.75-12.63,0.18c-4.18,0.89-8.25,2.39-12.48,3.43
		c-2.12,0.51-4.27,0.93-6.45,1.14c-2.19,0.19-4.39,0.12-6.57-0.14c-4.36-0.58-8.56-2.05-12.44-4.07c-3.9-1.99-7.57-4.39-11.03-7.04
		c-0.88-0.64-1.71-1.35-2.57-2.02l-1.28-1.02l-1.22-1.12c-0.8-0.76-1.64-1.49-2.4-2.29l-2.17-2.51l-0.54-0.63
		c-0.17-0.22-0.32-0.45-0.48-0.67l-0.95-1.36c-0.63-0.91-1.3-1.8-1.81-2.78l-1.64-2.89l-1.38-3.01c-0.22-0.51-0.47-1-0.66-1.52
		l-0.56-1.55c-0.36-1.04-0.78-2.06-1.09-3.12c-0.6-2.12-1.24-4.23-1.64-6.39c-0.96-4.29-1.46-8.65-1.79-13.01
		c-0.56-8.73-0.24-17.47,0.77-26.11c0.95-8.65,2.6-17.19,4.56-25.63c0.98-4.22,2.13-8.41,3.35-12.56
		C566.79,359.02,568.06,354.97,569.64,350.81z"/>
</g>
<g>
	<circle class="st9" cx="356.82" cy="257.33" r="45.97"/>
	<path class="st10" d="M310.85,257.33c0.03,6.02,1.23,12.03,3.56,17.57c2.32,5.55,5.74,10.62,9.99,14.85
		c4.26,4.23,9.39,7.56,14.93,9.81c5.55,2.25,11.53,3.37,17.49,3.33c5.97-0.06,11.91-1.29,17.38-3.61
		c5.48-2.31,10.46-5.73,14.63-9.94c4.17-4.21,7.51-9.23,9.76-14.71c2.25-5.47,3.39-11.39,3.38-17.3c0-5.91-1.13-11.83-3.39-17.3
		c-2.24-5.47-5.58-10.5-9.75-14.71c-4.18-4.2-9.16-7.62-14.63-9.94c-5.47-2.33-11.41-3.55-17.37-3.61
		c-5.97-0.04-11.95,1.08-17.49,3.33c-5.54,2.24-10.66,5.58-14.93,9.81c-4.26,4.23-7.68,9.31-9.99,14.85
		C312.08,245.31,310.88,251.31,310.85,257.33z M310.85,257.33c-0.01-6.02,1.15-12.04,3.45-17.61c2.28-5.58,5.68-10.69,9.93-14.98
		c4.25-4.28,9.32-7.76,14.9-10.12c5.57-2.37,11.62-3.61,17.69-3.68c6.07-0.04,12.16,1.1,17.81,3.39c5.64,2.29,10.86,5.68,15.2,9.99
		c4.33,4.31,7.81,9.47,10.17,15.12c2.36,5.64,3.59,11.76,3.62,17.88c-0.03,6.12-1.25,12.24-3.62,17.88
		c-2.36,5.65-5.84,10.81-10.17,15.12c-4.34,4.3-9.55,7.7-15.2,9.99c-5.65,2.29-11.74,3.43-17.81,3.39
		c-6.07-0.06-12.12-1.31-17.69-3.67c-5.58-2.36-10.65-5.84-14.9-10.12c-4.25-4.28-7.65-9.4-9.93-14.98
		C312,269.37,310.84,263.35,310.85,257.33z"/>
</g>
<path class="st11" d="M381.07,286.41c-23.56,8.55-49.39-3.07-57.69-25.96c-4.34-11.97-3.02-24.64,2.6-35.24
	c-12.46,11.87-17.54,30.08-11.44,46.89c8.3,22.88,34.13,34.5,57.69,25.96c11.24-4.08,19.92-12.01,25.04-21.66
	C392.77,280.68,387.32,284.15,381.07,286.41z"/>
<g>
	<circle class="st9" cx="489.18" cy="243.18" r="45.97"/>
	<path class="st10" d="M535.15,243.18c0.01,6.02-1.15,12.04-3.45,17.61c-2.28,5.58-5.68,10.69-9.93,14.98
		c-4.25,4.28-9.32,7.76-14.9,10.12c-5.57,2.37-11.62,3.61-17.69,3.67c-6.07,0.04-12.16-1.1-17.81-3.39
		c-5.64-2.29-10.85-5.69-15.2-9.99c-4.33-4.31-7.81-9.47-10.17-15.12c-2.37-5.64-3.59-11.76-3.62-17.88
		c0.02-6.12,1.25-12.24,3.62-17.88c2.36-5.65,5.84-10.81,10.17-15.12c4.34-4.31,9.55-7.7,15.2-9.99c5.65-2.29,11.74-3.43,17.81-3.39
		c6.07,0.06,12.12,1.31,17.69,3.68c5.58,2.36,10.65,5.84,14.9,10.12c4.25,4.28,7.65,9.4,9.93,14.98
		C533.99,231.14,535.16,237.16,535.15,243.18z M535.15,243.18c-0.03-6.02-1.23-12.03-3.56-17.57c-2.32-5.55-5.74-10.62-9.99-14.85
		c-4.27-4.23-9.39-7.56-14.93-9.81c-5.55-2.25-11.53-3.37-17.49-3.33c-5.97,0.06-11.9,1.29-17.37,3.61
		c-5.48,2.31-10.46,5.74-14.63,9.94c-4.17,4.21-7.51,9.23-9.75,14.71c-2.25,5.47-3.39,11.39-3.39,17.3
		c-0.01,5.91,1.13,11.83,3.38,17.3c2.24,5.47,5.58,10.5,9.76,14.71c4.17,4.21,9.16,7.63,14.63,9.94c5.47,2.33,11.41,3.55,17.38,3.61
		c5.97,0.04,11.95-1.08,17.49-3.33c5.54-2.24,10.67-5.58,14.93-9.81c4.26-4.23,7.68-9.31,9.99-14.85
		C533.91,255.2,535.12,249.2,535.15,243.18z"/>
</g>
<g>
	<circle cx="489.18" cy="243.18" r="16.8"/>
	<circle class="st9" cx="489.18" cy="243.6" r="6.5"/>
	<circle class="st9" cx="499.32" cy="230.58" r="4.2"/>
</g>
<g>
	<circle cx="356.82" cy="257.33" r="16.8"/>
	<circle class="st9" cx="356.82" cy="257.76" r="6.5"/>
	<circle class="st9" cx="366.97" cy="244.73" r="4.2"/>
</g>
<g>
	<g>
		<path class="st9" d="M428.88,335.26L428.88,335.26c3.44-0.98,5.46-4.61,4.47-8.05l-2.86-10.02c-0.98-3.44-4.61-5.46-8.05-4.47h0
			c-3.44,0.98-5.46,4.61-4.47,8.05l2.86,10.02C421.81,334.23,425.44,336.24,428.88,335.26z"/>
		<g>
			<path class="st5" d="M428.88,335.26c1.24-0.37,2.35-1.1,3.17-2.09c0.81-1,1.3-2.23,1.42-3.49c0.07-0.63-0.01-1.27-0.13-1.88
				c-0.15-0.6-0.37-1.22-0.56-1.83l-1.18-3.67l-1.18-3.67c-0.2-0.6-0.39-1.26-0.6-1.78c-0.24-0.54-0.54-1.05-0.91-1.5
				c-1.48-1.82-4.05-2.63-6.26-1.96c-2.23,0.6-3.98,2.64-4.28,4.97c-0.08,0.58-0.06,1.17,0.02,1.75c0.09,0.56,0.28,1.22,0.43,1.83
				l0.94,3.74l0.94,3.74c0.16,0.62,0.3,1.26,0.49,1.85c0.22,0.59,0.49,1.16,0.88,1.67c0.76,1.01,1.83,1.8,3.05,2.22
				C426.31,335.56,427.64,335.6,428.88,335.26z M428.88,335.26c-2.48,0.75-5.35-0.16-6.99-2.2c-0.41-0.5-0.75-1.07-1.02-1.68
				c-0.25-0.62-0.42-1.23-0.62-1.84l-1.18-3.67l-1.18-3.67c-0.19-0.62-0.41-1.19-0.57-1.89c-0.14-0.68-0.21-1.39-0.14-2.09
				c0.13-1.4,0.68-2.76,1.57-3.86c0.91-1.09,2.14-1.91,3.51-2.31c1.37-0.38,2.85-0.34,4.2,0.11c1.34,0.46,2.53,1.33,3.37,2.45
				c0.43,0.56,0.74,1.2,0.98,1.85c0.23,0.68,0.35,1.28,0.51,1.91l0.94,3.74l0.94,3.74c0.15,0.63,0.33,1.24,0.44,1.89
				c0.09,0.65,0.11,1.31,0.02,1.96C433.34,332.3,431.39,334.59,428.88,335.26z"/>
		</g>
	</g>
	<g>
		<path class="st9" d="M443.11,332.03L443.11,332.03c3.44-0.98,5.46-4.61,4.47-8.05l-2.86-10.02c-0.98-3.44-4.61-5.46-8.05-4.47h0
			c-3.44,0.98-5.46,4.61-4.47,8.05l2.86,10.02C436.05,331,439.67,333.01,443.11,332.03z"/>
		<g>
			<path class="st5" d="M443.11,332.03c1.24-0.37,2.35-1.1,3.17-2.09c0.81-1,1.3-2.23,1.42-3.49c0.07-0.63-0.01-1.27-0.13-1.88
				c-0.15-0.6-0.37-1.22-0.56-1.83l-1.18-3.67l-1.18-3.67c-0.2-0.6-0.39-1.26-0.6-1.78c-0.24-0.54-0.54-1.05-0.91-1.5
				c-1.48-1.82-4.05-2.63-6.26-1.96c-2.23,0.6-3.98,2.64-4.28,4.97c-0.08,0.58-0.06,1.17,0.02,1.75c0.09,0.56,0.28,1.22,0.43,1.83
				l0.94,3.74l0.94,3.74c0.16,0.62,0.3,1.26,0.49,1.85c0.22,0.59,0.49,1.16,0.88,1.67c0.76,1.01,1.83,1.8,3.05,2.22
				C440.54,332.33,441.87,332.37,443.11,332.03z M443.11,332.03c-2.48,0.75-5.35-0.16-6.99-2.2c-0.41-0.5-0.75-1.07-1.02-1.68
				c-0.25-0.62-0.42-1.23-0.62-1.84l-1.18-3.67l-1.18-3.67c-0.19-0.62-0.41-1.19-0.57-1.89c-0.14-0.68-0.21-1.39-0.14-2.09
				c0.13-1.4,0.68-2.76,1.57-3.86c0.91-1.09,2.14-1.91,3.51-2.31c1.37-0.38,2.85-0.34,4.2,0.11c1.34,0.46,2.53,1.33,3.37,2.45
				c0.43,0.56,0.74,1.2,0.98,1.85c0.23,0.68,0.35,1.28,0.51,1.91l0.94,3.74l0.94,3.74c0.15,0.63,0.33,1.24,0.44,1.89
				c0.09,0.65,0.11,1.31,0.02,1.96C447.57,329.07,445.62,331.36,443.11,332.03z"/>
		</g>
	</g>
</g>
<g>
	
		<ellipse transform="matrix(0.9775 -0.2108 0.2108 0.9775 -54.878 97.4498)" class="st4" cx="429.7" cy="306.16" rx="33" ry="12.16"/>
	<g>
		<path class="st5" d="M397.44,313.11c0.34,1.55,1.5,2.75,2.79,3.59c1.31,0.84,2.77,1.41,4.27,1.84c3,0.83,6.12,1.09,9.22,1.16
			c6.22,0.06,12.4-0.86,18.4-2.34c5.99-1.51,11.86-3.55,17.29-6.35c2.71-1.39,5.3-3.01,7.53-4.94c1.11-0.96,2.11-2.02,2.83-3.17
			c0.71-1.15,1.07-2.37,0.83-3.42c-0.22-1.06-1.05-2.02-2.17-2.77c-1.13-0.74-2.48-1.3-3.89-1.72c-2.83-0.83-5.86-1.24-8.9-1.39
			c-6.1-0.3-12.29,0.24-18.37,1.34c-6.08,1.13-12.09,2.84-17.73,5.45c-2.8,1.34-5.53,2.87-7.93,4.86c-1.18,1-2.28,2.13-3.13,3.43
			C397.67,309.99,397.11,311.56,397.44,313.11z M397.44,313.11c-0.34-1.55,0.2-3.14,1.01-4.45c0.84-1.32,1.93-2.46,3.11-3.48
			c2.37-2.04,5.05-3.69,7.82-5.12c5.57-2.86,11.52-4.93,17.61-6.46c6.1-1.49,12.37-2.43,18.74-2.37c3.18,0.07,6.39,0.34,9.56,1.22
			c1.58,0.45,3.16,1.06,4.64,2.01c0.74,0.48,1.45,1.08,2.06,1.81c0.61,0.73,1.1,1.65,1.31,2.64c0.21,1,0.14,2.03-0.11,2.95
			c-0.25,0.92-0.65,1.76-1.13,2.5c-0.96,1.48-2.15,2.68-3.4,3.75c-2.53,2.1-5.35,3.67-8.21,5.05c-5.78,2.68-11.88,4.41-18.05,5.56
			c-6.18,1.12-12.46,1.68-18.7,1.37c-3.12-0.16-6.24-0.57-9.24-1.44c-1.49-0.44-2.96-1.04-4.26-1.89
			C398.91,315.89,397.76,314.66,397.44,313.11z"/>
	</g>
</g>
<ellipse transform="matrix(0.9856 -0.1693 0.1693 0.9856 -43.3452 76.3851)" cx="426.21" cy="292.35" rx="13.53" ry="8.68"/>
<path d="M460.25,379.3l7.08-7.73c11.29-12.33,4.36-31.06-17.53-25.49l-21.4,5.44c-21.89,5.57-19.03,25.34-3.22,30.77l9.92,3.41
	C443.12,388.46,454.51,385.56,460.25,379.3z"/>
<path class="st0" d="M278.27,235.29c0.17,1.23,0.04,2.51-0.42,3.75c-1.5,4.03-5.98,6.08-10.01,4.58c-4.03-1.5-6.08-5.98-4.58-10.01
	c0.46-1.24,1.21-2.29,2.14-3.11c-2.55,1.03-4.68,3.1-5.72,5.88c-1.96,5.27,0.72,11.12,5.99,13.08s11.12-0.72,13.08-5.99
	C279.79,240.69,279.52,237.74,278.27,235.29z"/>
<path class="st0" d="M575.91,220.31c1.24-0.02,2.5,0.26,3.67,0.87c3.81,1.98,5.3,6.68,3.32,10.49c-1.98,3.81-6.68,5.3-10.49,3.32
	c-1.18-0.61-2.13-1.48-2.83-2.5c0.71,2.66,2.5,5.02,5.14,6.39c4.99,2.59,11.13,0.64,13.71-4.34c2.59-4.99,0.64-11.13-4.34-13.71
	C581.46,219.46,578.5,219.36,575.91,220.31z"/>
<g>
	<g>
		<path class="st0" d="M680.09,146.7c10.54,7.69,16.66,15.5,18.77,23.4c1.83,6.88,0.56,14.73-3.67,23.61
			c-0.95,1.99-2.81,5.11-5.68,9.53c-2.78,4.24-4.73,7.54-5.68,9.53c-6.39,13.42-3.72,22.92,7.85,28.43l3.39,1.62l-4.75,9.97
			l-3.39-1.62c-11.58-5.52-20.64-1.6-27.11,12c-0.95,1.99-2.2,5.4-3.83,10.41c-1.54,4.83-2.79,8.24-3.74,10.23
			c-4.23,8.88-9.52,14.82-16.02,17.73c-7.46,3.34-17.39,3.5-30,0.17l2.54-9.69c9.68,1.94,16.93,1.84,21.67-0.57
			c4.27-2.19,8.16-6.79,11.7-14.22c0.95-1.99,2.2-5.4,3.65-10.05c1.37-4.46,2.62-7.87,3.65-10.05
			c6.22-13.05,15.51-18.64,27.63-16.65c-9.01-8.52-10.52-19.25-4.39-32.12c0.95-1.99,2.81-5.11,5.5-9.17
			c2.6-3.88,4.47-6.99,5.5-9.17c3.54-7.43,4.66-13.35,3.59-17.87c-1.12-5.2-5.45-10.83-13.12-17.37L680.09,146.7z"/>
		<g>
			<path class="st1" d="M680.09,146.7c3.93,2.72,7.71,5.7,11.04,9.2c3.31,3.49,6.18,7.52,7.91,12.14c0.88,2.3,1.39,4.76,1.56,7.23
				c0.16,2.47-0.03,4.96-0.45,7.38c-0.42,2.43-1.1,4.8-1.92,7.1c-0.84,2.29-1.75,4.57-2.94,6.75c-2.31,4.29-5.03,8.27-7.4,12.33
				c-0.6,1.02-1.17,2.04-1.71,3.06c-0.27,0.51-0.53,1.02-0.76,1.53l-0.67,1.59c-0.48,1.05-0.8,2.14-1.19,3.21
				c-0.29,1.09-0.63,2.17-0.8,3.27c-0.4,2.18-0.51,4.38-0.16,6.45c0.34,2.07,1.18,3.99,2.45,5.64c1.26,1.65,2.94,3.03,4.8,4.17
				c0.91,0.61,1.93,1.05,2.93,1.57l3.25,1.5l1.05,2.95l-4.64,10.03l-3.12,1.11l-3.25-1.5c-1.04-0.42-2.02-0.91-3.06-1.21
				c-2.05-0.68-4.14-1.06-6.15-0.95c-2.01,0.1-3.93,0.69-5.66,1.73c-1.73,1.03-3.28,2.49-4.64,4.17c-1.38,1.66-2.53,3.58-3.57,5.58
				l-0.76,1.51c-0.23,0.48-0.44,0.99-0.65,1.51c-0.42,1.05-0.82,2.14-1.21,3.24c-0.77,2.22-1.49,4.44-2.21,6.74
				c-0.75,2.3-1.52,4.6-2.43,6.92c-0.44,1.15-1.01,2.4-1.56,3.48c-0.55,1.12-1.14,2.22-1.78,3.31c-1.26,2.17-2.68,4.3-4.33,6.27
				c-1.65,1.97-3.52,3.82-5.64,5.4c-2.12,1.56-4.52,2.88-6.99,3.76c-4.97,1.81-10.2,2.25-15.22,2.01
				c-5.05-0.24-9.93-1.22-14.69-2.46l-2-3.42l2.56-9.69l3.24-2.02c3.85,0.77,7.73,1.33,11.49,1.32c1.87-0.01,3.72-0.15,5.41-0.56
				c1.73-0.4,3.17-1.01,4.57-2.01c2.8-1.98,5.11-5.03,7.04-8.31c0.95-1.65,1.88-3.41,2.59-5.1c0.74-1.77,1.41-3.64,2.05-5.52
				l1.89-5.77c0.66-1.96,1.37-3.91,2.21-5.88c0.21-0.49,0.44-0.99,0.68-1.48l0.73-1.42c0.47-0.95,1.04-1.87,1.58-2.79
				c0.54-0.92,1.19-1.8,1.79-2.69c0.69-0.85,1.29-1.74,2.06-2.53c2.87-3.28,6.65-6,10.93-7.41c2.12-0.75,4.36-1.06,6.56-1.2
				c2.21-0.13,4.39,0.11,6.53,0.43l-1.81,3.66c-3.06-3-5.72-6.63-7.16-10.83c-1.49-4.17-1.67-8.72-0.88-12.93
				c0.74-4.26,2.34-8.16,4.31-11.9c1.03-1.83,2.13-3.56,3.25-5.27c1.12-1.71,2.31-3.38,3.41-5.03c1.11-1.66,2.2-3.34,3.18-5.05
				c0.96-1.68,1.8-3.51,2.57-5.32c1.48-3.64,2.61-7.5,2.4-11.33c-0.19-3.83-2.08-7.43-4.47-10.6c-2.4-3.18-5.28-6.03-8.25-8.76
				l-0.05-0.41L680.09,146.7z M680.09,146.7c-1.97,2.79-3.84,5.56-5.69,8.25l-0.05-0.41c3.16,2.55,6.2,5.28,8.85,8.43
				c1.31,1.59,2.54,3.27,3.48,5.15c0.96,1.87,1.63,3.93,1.84,6.07c0.4,4.29-0.66,8.45-2.05,12.33c-0.73,1.94-1.5,3.84-2.47,5.71
				c-0.96,1.85-2,3.61-3.07,5.35c-1.09,1.75-2.2,3.42-3.24,5.13c-1.04,1.71-2.07,3.43-2.96,5.16c-1.68,3.46-3.07,7.2-3.58,10.95
				c-0.57,3.75-0.26,7.55,1.04,10.99c1.27,3.46,3.59,6.49,6.34,9.08l-1.81,3.66c-3.74-0.54-7.51-0.38-10.91,0.86
				c-3.41,1.21-6.38,3.46-8.79,6.28c-2.45,2.78-4.35,6.23-5.87,9.68c-0.73,1.77-1.38,3.64-1.99,5.52l-1.81,5.8
				c-0.64,1.96-1.3,3.91-2.09,5.9c-0.83,2.06-1.78,3.89-2.82,5.77c-2.11,3.69-4.69,7.36-8.52,10.11c-0.96,0.67-1.97,1.3-3.1,1.78
				c-1.11,0.48-2.23,0.86-3.35,1.11c-2.25,0.54-4.47,0.71-6.64,0.74c-4.35,0.02-8.53-0.58-12.62-1.37l3.24-2.02l-2.51,9.7l-2-3.42
				c4.48,1.16,9.03,2.01,13.54,2.24c4.5,0.24,8.98-0.16,13.02-1.61c8.09-2.76,13.66-10.78,17.14-18.99
				c0.84-2.12,1.61-4.35,2.34-6.59c0.74-2.26,1.52-4.57,2.35-6.85c0.42-1.15,0.86-2.29,1.34-3.46c0.24-0.58,0.5-1.18,0.8-1.77
				l0.87-1.68c1.19-2.22,2.54-4.41,4.24-6.41c1.68-2,3.67-3.87,6.07-5.25c2.39-1.39,5.19-2.21,7.96-2.3c2.78-0.1,5.45,0.45,7.92,1.3
				c1.25,0.39,2.42,0.97,3.58,1.48l3.22,1.58l-3.12,1.11l4.87-9.92l1.05,2.95l-3.22-1.58c-1.11-0.6-2.27-1.15-3.34-1.89
				c-2.17-1.4-4.22-3.14-5.82-5.34c-1.6-2.18-2.66-4.8-3.04-7.46c-0.39-2.66-0.14-5.31,0.4-7.8c0.24-1.26,0.65-2.45,1.02-3.66
				c0.46-1.16,0.86-2.36,1.41-3.47l0.78-1.69c0.29-0.57,0.59-1.12,0.89-1.66c0.61-1.07,1.24-2.11,1.89-3.14
				c2.59-4.11,5.38-7.95,7.75-12.01c1.18-1.97,2.14-4.11,3.04-6.27c0.87-2.16,1.6-4.38,2.09-6.64c0.49-2.26,0.76-4.57,0.71-6.87
				c-0.07-2.3-0.42-4.59-1.14-6.8c-1.41-4.43-3.99-8.49-7.06-12.08C687.43,152.84,683.85,149.65,680.09,146.7z"/>
		</g>
	</g>
</g>
<path class="st11" d="M464.97,214.02c23.51-8.69,49.41,2.77,57.85,25.6c4.42,11.94,3.17,24.63-2.38,35.25
	c12.39-11.95,17.35-30.18,11.15-46.96c-8.44-22.83-34.34-34.29-57.85-25.6c-11.21,4.15-19.84,12.13-24.9,21.82
	C453.31,219.82,458.74,216.33,464.97,214.02z"/>
</svg>
